<?xml version="1.0" encoding="UTF-8"?>
<svg id="cactus_icon.svg" xmlns="http://www.w3.org/2000/svg" viewBox="0 0 338.06 435.99">
  <defs>
    <style>
      .cls-1 {
        fill: #56c5d8;
      }

      .cls-2 {
        fill: #ff9c31;
      }

      .cls-3 {
        fill: #59c447;
      }

      .cls-4 {
        fill: #d6ef3f;
      }

      .cls-5 {
        fill: #88d1e2;
      }

      .cls-6 {
        fill: #9e67e5;
      }

      .cls-7 {
        fill: #15a300;
      }

      .cls-8 {
        fill: #dfb3e8;
      }

      .cls-9 {
        fill: #3e7d84;
      }

      .cls-10 {
        fill: #f7cbe2;
      }

      .cls-11 {
        fill: #edbed1;
      }

      .cls-12 {
        fill: #ed6e77;
      }

      .cls-13 {
        fill: #d4a9ed;
      }

      .cls-14 {
        fill: #137f00;
      }

      .cls-15 {
        fill: #d35766;
      }

      .cls-16 {
        fill: #f4f44d;
      }

      .cls-17 {
        fill: #56c156;
      }

      .cls-18 {
        fill: #e895bb;
      }
    </style>
  </defs>
  <g>
    <path class="cls-3" d="m271.18,207.73c-4.07,4.57-16.44,18.57-54.62,13.33-16.08-2.18-30.88,9.06-33.1,25.14-.42,2.99-.36,5.92.12,8.76-.27.12-.54.18-.81.24-4.07.69-7.89-2.06-8.58-6.13-.69-4.04,2-7.86,6.04-8.58-.06-1.55-.03-3.14.21-4.75,1.52-11.27,9.84-19.94,20.27-22.48-.42-3.95,2.3-7.53,6.28-8.13,4.07-.63,7.86,2.18,8.46,6.25.09.66.09,1.26.03,1.88,20.42,1.97,31.99-2.36,38.51-6.73-.9-1.08-1.52-2.39-1.7-3.86-.54-4.1,2.33-7.8,6.43-8.34,2.06-.27,4.04.36,5.56,1.55,5.8-8.67,9.3-19.97,11.15-32.38-3.35-.42-6.07-3.05-6.46-6.55-.45-4.07,2.48-7.74,6.58-8.19.45-.06.9-.06,1.35-.03.81-14.53-.09-29.63-1.64-43.17-.09,0-.18.03-.27.06-4.1.36-7.71-2.66-8.07-6.76-.36-3.92,2.42-7.38,6.31-7.98-1.52-9.33-3.23-17.22-4.63-22.6-.63-2.42-.9-4.84-.87-7.21-3.35-.51-6.04-3.29-6.31-6.82-.3-4.1,2.78-7.65,6.88-7.95,1.32-.09,2.54.18,3.65.69,3.32-5.23,8.46-9.36,14.83-11.27-6.73,7.15-9.69,17.46-7.03,27.59,7.09,26.97,20.72,111.37-8.55,144.4Z"/>
    <path class="cls-14" d="m330.94,125.65c.57,15.07.06,31.18-2.48,46.97,3.5.63,6.16,3.68,6.16,7.38-.03,4.13-3.41,7.44-7.5,7.41-.57,0-1.14-.09-1.64-.21-3.92,15.61-10.14,30.44-19.67,43.11,1.73,1.41,2.84,3.56,2.78,5.95-.09,4.13-3.53,7.38-7.65,7.29-1.94-.06-3.68-.87-4.99-2.12-12.89,12.38-33.04,24.22-63.5,25.89.12,3.62-2.39,6.88-6.04,7.56-4.07.78-7.98-1.91-8.73-5.95-.12-.54-.15-1.08-.12-1.61-4.51-.21-9.21-.63-14.08-1.32-1.58-.21-3.11-.57-4.57-1.05,1.26.03,2.51.06,3.77.06,42.93,0,68.61-17.94,83.14-34.38,54.23-61.38,25.95-180.25,21.5-197.47.87-.48,1.88-.75,2.93-.81,4.13-.21,7.59,2.96,7.83,7.06.09,2.15-.75,4.13-2.15,5.56,2.12,2.75,3.74,5.98,4.69,9.54.39,1.43,1.11,4.25,1.97,8.07.42-.12.87-.18,1.32-.18,4.1-.15,7.53,3.08,7.68,7.18.12,3.71-2.51,6.85-6.04,7.53,1.7,9.36,3.41,20.9,4.51,33.69.15,0,.3-.06.45-.06,4.13-.03,7.5,3.26,7.56,7.35.03,4.04-3.11,7.32-7.12,7.53Z"/>
    <path class="cls-7" d="m285.8,230.65c-14.53,16.44-40.21,34.38-83.14,34.38-1.26,0-2.51-.03-3.77-.06-5.86-1.85-10.73-5.65-14.02-10.49-.42.21-.84.39-1.29.48-.48-2.84-.54-5.77-.12-8.76,2.21-16.08,17.01-27.33,33.1-25.14,38.18,5.23,50.56-8.76,54.62-13.33,29.27-33.04,15.64-117.43,8.55-144.4-2.66-10.14.3-20.45,7.03-27.59.33-.12.66-.21.99-.3,5.62-1.49,11.3-1.05,16.35.87.72-1.35,1.82-2.42,3.2-3.11,4.45,17.22,32.74,136.09-21.5,197.47Z"/>
    <path class="cls-3" d="m138.23,215.79c.06.42.12.84.12,1.26-.12,4.13-3.56,7.38-7.68,7.29-4.13-.12-7.38-3.56-7.26-7.68,0-.27.06-.51.09-.78-19.28-3.74-35.58-10.05-49.3-18.18-1.32,2.12-3.65,3.56-6.34,3.56-4.1-.03-7.44-3.38-7.44-7.47,0-1.64.54-3.11,1.43-4.34-11.84-8.97-21.35-19.37-28.88-30.49-1.11.72-2.42,1.17-3.83,1.2-4.13.09-7.53-3.17-7.62-7.29-.06-2.84,1.52-5.32,3.86-6.64-5.86-11.03-10.08-22.45-12.95-33.63-.45.09-.9.18-1.38.18-4.1.18-7.56-2.99-7.77-7.09-.15-3.77,2.51-6.97,6.1-7.62-1.61-9.93-2.27-19.37-2.18-27.89-3.77-.12-6.91-3.02-7.17-6.88-.27-4.1,2.81-7.62,6.91-7.92.48-.03.96,0,1.41.06,1.7-7.62,6.58-13.9,13.06-17.55-1.05,2.54-1.73,5.29-2,8.16-4.78,49.09,14.65,146.02,120.54,169.22-.57.18-1.14.36-1.7.54Z"/>
    <path class="cls-14" d="m158.71,202.04c-1.29.24-2.54.12-3.71-.27-1.2,2.45-2.75,4.66-4.57,6.58.24-.81.42-1.64.57-2.48,2.84-15.85-7.68-30.97-23.53-33.81-85.8-15.4-81.17-98.39-80.33-107.87,1.17-12.8-6.1-24.43-17.25-29.33,1.82-.33,3.71-.45,5.65-.39.57-3.23,3.2-5.83,6.61-6.16,4.1-.39,7.71,2.63,8.1,6.73.12,1.41-.15,2.72-.75,3.92,7.68,5.14,12.44,14.08,11.9,23.86,3.59.15,6.64,2.87,7.06,6.55.48,4.07-2.45,7.77-6.52,8.25-.24.03-.45,0-.69,0,.45,8.1,1.85,18.72,5.68,29.81.51-.21,1.05-.36,1.64-.45,4.07-.57,7.83,2.27,8.4,6.34.48,3.29-1.29,6.31-4.1,7.71,7.24,13.39,18.78,26.19,37.19,34.62.96-2.3,3.02-4.07,5.65-4.51,4.07-.66,7.89,2.09,8.58,6.16.18,1.2.06,2.36-.3,3.47,3.68,1.05,7.47,1.97,11.57,2.72,12.11,2.15,20.84,12.11,22,23.77,3.44.12,6.43,2.57,7.09,6.07.78,4.07-1.91,7.95-5.95,8.73Z"/>
    <path class="cls-7" d="m151,205.87c-.15.84-.33,1.67-.57,2.48-2.9,3.11-6.49,5.47-10.49,6.91C34.04,192.06,14.61,95.13,19.39,46.04c.27-2.87.96-5.62,2-8.16,2.6-1.46,5.47-2.48,8.49-3.02,11.15,4.9,18.42,16.53,17.25,29.33-.84,9.48-5.47,92.47,80.33,107.87,15.85,2.84,26.37,17.97,23.53,33.81Z"/>
    <path class="cls-3" d="m216.22,414.45v.78h-89.32c-.2,0-.37-.16-.37-.37v-65.93c0-.19-.15-.34-.34-.35-3.76-.17-6.84-3.13-7.07-6.96-.24-4.1,2.87-7.62,6.97-7.86.15,0,.3.03.45.03v-43.25c0-.19-.15-.34-.34-.35-3.79-.17-6.9-3.19-7.07-7.08-.21-4.1,2.99-7.56,7.09-7.77.12,0,.21.03.33.03v-43.22c0-.19-.15-.34-.35-.35-4.84-.22-8.55-5.08-6.54-10.36,1.06-2.79,3.91-4.49,6.89-4.49h0s0-43.19,0-43.19c0-.19-.15-.34-.34-.35-3.91-.18-7.04-3.34-7.1-7.29-.06-4.13,3.2-7.5,7.32-7.59.03,0,.09.03.12.03v-43.16c0-.19-.15-.34-.34-.35-3.94-.18-7.1-3.46-7.1-7.44-.03-4.13,3.32-7.47,7.41-7.47h.03v-42.81c0-.36.06-.69.06-1.02-3.03-.67-5.33-3.16-5.76-6.26-.22-1.56.37-3.15,1.42-4.33,3.81-4.27,5.4-4.31,6.87-4.08.17.03.33-.07.39-.22,4.77-12.54,14.97-22.42,27.77-26.66.32-.11.6.25.43.54-4.2,7.03-6.6,15.27-6.6,24.06v374.72c0,.2.16.37.37.37h64.75Z"/>
    <path class="cls-14" d="m216.22,127.08v43.53c3.62,0,6.79,2.6,7.35,6.25.66,4.07-2.12,7.89-6.19,8.55-.39.06-.78.06-1.17.06v43.56c3.65,0,6.85,2.63,7.38,6.34.57,4.07-2.24,7.86-6.31,8.43-.36.06-.72.06-1.08.06v43.56c4.61,0,8.47,4.23,7.22,9.5-.62,2.61-2.86,4.6-5.49,5.18-.69.15-1.17.15-1.73.15v43.59c4.3,0,7.89,3.64,7.39,8.28-.32,3.02-2.66,5.51-5.59,6.31-.77.21-1.23.21-1.8.21v53.81h-28.82V44.08c0-12.08-4.57-23.11-12.08-31.42,21.74,1.88,39.02,19.34,40.72,41.14,3.59-.09,6.85,2.42,7.53,6.07.75,4.04-1.91,7.95-5.98,8.73-.45.09-.93.12-1.38.12v43.47c3.52,0,6.67,2.49,7.34,6.09.25,1.37-.2,2.79-.97,3.95-3.2,4.85-4.79,4.85-6.37,4.85Z"/>
    <path class="cls-7" d="m187.4,44.08v370.36h-36.29V39.36c0-9.15,2.6-17.7,7.12-24.9,4.16-1.29,8.58-1.97,13.15-1.97,1.35,0,2.66.06,3.95.18,7.5,8.31,12.08,19.34,12.08,31.42Z"/>
  </g>
  <g>
    <path id="flower_petal_2" data-name="flower petal 2" class="cls-11" d="m135.79,47.13c18.62,16.02-17.15,28.54-12.59,4.4-4.57,24.14-33.3-.58-10.11-8.7-23.19,8.11-16.14-29.13,2.48-13.1-18.62-16.02,17.15-28.54,12.59-4.4,4.57-24.14,33.3.58,10.11,8.7,23.19-8.11,16.14,29.13-2.48,13.1Z"/>
    <path id="flower_petal_1" data-name="flower petal 1" class="cls-10" d="m134.36,45.9c15.98,13.75-14.72,24.5-10.8,3.78-3.92,20.72-28.58-.5-8.68-7.47-19.9,6.96-13.85-25,2.13-11.25-15.98-13.75,14.72-24.5,10.8-3.78,3.92-20.72,28.58.5,8.68,7.47,19.9-6.96,13.85,25-2.13,11.25Z"/>
    <circle id="middle_flower" data-name="middle flower" class="cls-18" cx="125.69" cy="38.43" r="6.35"/>
  </g>
  <g>
    <path id="flower_petal_2-2" data-name="flower petal 2" class="cls-2" d="m167.6,55.28c15.02,12.93-13.84,23.02-10.15,3.55-3.68,19.47-26.86-.47-8.15-7.02-18.7,6.55-13.02-23.5,2-10.57-15.02-12.93,13.84-23.02,10.15-3.55,3.68-19.47,26.86.47,8.15,7.02,18.7-6.55,13.02,23.5-2,10.57Z"/>
    <path id="flower_petal_1-2" data-name="flower petal 1" class="cls-16" d="m166.44,54.28c12.89,11.09-11.88,19.76-8.72,3.05-3.16,16.71-23.05-.41-7-6.02-16.05,5.62-11.18-20.17,1.72-9.07-12.89-11.09,11.88-19.76,8.72-3.05,3.16-16.71,23.05.41,7,6.02,16.05-5.62,11.18,20.17-1.72,9.07Z"/>
    <circle id="middle_flower-2" data-name="middle flower" class="cls-2" cx="159.44" cy="48.26" r="5.12"/>
  </g>
  <g>
    <path id="flower_petal_2-3" data-name="flower petal 2" class="cls-1" d="m154.99,20.71c10.92,9.4-10.06,16.75-7.39,2.58-2.68,14.16-19.54-.34-5.93-5.1-13.6,4.76-9.47-17.09,1.45-7.69-10.92-9.4,10.06-16.75,7.39-2.58,2.68-14.16,19.54.34,5.93,5.1,13.6-4.76,9.47,17.09-1.45,7.69Z"/>
    <path id="flower_petal_1-3" data-name="flower petal 1" class="cls-5" d="m154.15,19.98c9.38,8.07-8.64,14.37-6.34,2.22-2.3,12.16-16.77-.29-5.09-4.38-11.68,4.09-8.13-14.67,1.25-6.6-9.38-8.07,8.64-14.37,6.34-2.22,2.3-12.16,16.77.29,5.09,4.38,11.68-4.09,8.13,14.67-1.25,6.6Z"/>
    <circle id="middle_flower-3" data-name="middle flower" class="cls-9" cx="149.06" cy="15.6" r="3.72"/>
  </g>
  <g>
    <path id="flower_petal_2-4" data-name="flower petal 2" class="cls-11" d="m138.1,402.47c-13.8,20.32,24,23.09,13.3.97,10.7,22.11,31.99-9.24,7.49-11.03,24.5,1.79,8-32.33-5.81-12.01,13.8-20.32-24-23.09-13.3-.97-10.7-22.11-31.99,9.24-7.49,11.03-24.5-1.79-8,32.33,5.81,12.01Z"/>
    <path id="flower_petal_1-4" data-name="flower petal 1" class="cls-10" d="m139.17,400.9c-11.85,17.44,20.6,19.82,11.42.84,9.18,18.98,27.46-7.93,6.43-9.47,21.03,1.54,6.86-27.75-4.98-10.3,11.85-17.44-20.6-19.82-11.42-.84-9.18-18.98-27.46,7.93-6.43,9.47-21.03-1.54-6.86,27.75,4.98,10.3Z"/>
    <circle id="middle_flower-4" data-name="middle flower" class="cls-18" cx="145.6" cy="391.44" r="6.35"/>
  </g>
  <g>
    <path id="flower_petal_2-5" data-name="flower petal 2" class="cls-2" d="m109.52,418.62c-11.13,16.39,19.36,18.62,10.73.79,8.63,17.84,25.81-7.45,6.04-8.9,19.76,1.45,6.45-26.08-4.68-9.68,11.13-16.39-19.36-18.62-10.73-.79-8.63-17.84-25.81,7.45-6.04,8.9-19.76-1.45-6.45,26.08,4.68,9.68Z"/>
    <path id="flower_petal_1-5" data-name="flower petal 1" class="cls-16" d="m110.38,417.36c-9.56,14.07,16.62,15.99,9.21.67,7.41,15.31,22.15-6.4,5.19-7.64,16.96,1.24,5.54-22.38-4.02-8.31,9.56-14.07-16.62-15.99-9.21-.67-7.41-15.31-22.15,6.4-5.19,7.64-16.96-1.24-5.54,22.38,4.02,8.31Z"/>
    <circle id="middle_flower-5" data-name="middle flower" class="cls-2" cx="115.56" cy="409.72" r="5.12"/>
  </g>
  <g>
    <path id="flower_petal_2-6" data-name="flower petal 2" class="cls-1" d="m112.69,381.96c-8.1,11.92,14.08,13.55,7.8.57,6.28,12.98,18.77-5.42,4.4-6.47,14.37,1.05,4.69-18.97-3.41-7.04,8.1-11.92-14.08-13.55-7.8-.57-6.28-12.98-18.77,5.42-4.4,6.47-14.37-1.05-4.69,18.97,3.41,7.04Z"/>
    <path id="flower_petal_1-6" data-name="flower petal 1" class="cls-5" d="m113.31,381.04c-6.95,10.23,12.09,11.63,6.7.49,5.39,11.14,16.11-4.65,3.77-5.56,12.34.9,4.03-16.28-2.92-6.05,6.95-10.23-12.09-11.63-6.7-.49-5.39-11.14-16.11,4.65-3.77,5.56-12.34-.9-4.03,16.28,2.92,6.05Z"/>
    <circle id="middle_flower-6" data-name="middle flower" class="cls-9" cx="117.09" cy="375.48" r="3.72"/>
  </g>
  <g>
    <path id="flower_petal_2-7" data-name="flower petal 2" class="cls-13" d="m188.1,417.41c21.14,12.52-11.89,31.1-11.62,6.54-.27,24.56-32.88,5.25-11.47-6.79-21.41,12.05-20.99-25.85.15-13.33-21.14-12.52,11.89-31.1,11.62-6.54.27-24.56,32.88-5.25,11.47,6.79,21.41-12.05,20.99,25.85-.15,13.33Z"/>
    <path id="flower_petal_1-7" data-name="flower petal 1" class="cls-8" d="m186.48,416.44c18.14,10.74-10.21,26.7-9.98,5.61-.23,21.08-28.23,4.51-9.85-5.83-18.38,10.34-18.02-22.19.13-11.45-18.14-10.74,10.21-26.7,9.98-5.61.23-21.08,28.23-4.51,9.85,5.83,18.38-10.34,18.02,22.19-.13,11.45Z"/>
    <circle id="middle_flower-7" data-name="middle flower" class="cls-6" cx="176.63" cy="410.61" r="6.35"/>
  </g>
  <g>
    <path id="flower_petal_2-8" data-name="flower petal 2" class="cls-15" d="m220.84,419.86c17.05,10.1-9.59,25.09-9.37,5.28-.22,19.82-26.53,4.24-9.26-5.48-17.27,9.72-16.93-20.85.12-10.76-17.05-10.1,9.59-25.09,9.37-5.28.22-19.82,26.53-4.24,9.26,5.48,17.27-9.72,16.93,20.85-.12,10.76Z"/>
    <path id="flower_petal_1-8" data-name="flower petal 1" class="cls-12" d="m219.53,419.08c14.64,8.67-8.23,21.54-8.05,4.53-.19,17.01-22.77,3.64-7.95-4.7-14.82,8.34-14.53-17.9.1-9.23-14.64-8.67,8.23-21.54,8.05-4.53.19-17.01,22.77-3.64,7.95,4.7,14.82-8.34,14.53,17.9-.1,9.23Z"/>
    <circle id="middle_flower-8" data-name="middle flower" class="cls-15" cx="211.58" cy="414.38" r="5.12"/>
  </g>
  <g>
    <path id="flower_petal_2-9" data-name="flower petal 2" class="cls-17" d="m224.2,383.62c13.8,4.16-2.41,19.39-5.7,5.36,3.29,14.03-18,7.61-7.49-2.26-10.51,9.87-15.59-11.78-1.79-7.62-13.8-4.16,2.41-19.39,5.7-5.36-3.29-14.03,18-7.61,7.49,2.26,10.51-9.87,15.59,11.78,1.79,7.62Z"/>
    <path id="flower_petal_1-9" data-name="flower petal 1" class="cls-4" d="m223.14,383.3c11.84,3.57-2.07,16.64-4.9,4.6,2.83,12.04-15.45,6.53-6.43-1.94-9.02,8.47-13.38-10.11-1.53-6.54-11.84-3.57,2.07-16.64,4.9-4.6-2.83-12.04,15.45-6.53,6.43,1.94,9.02-8.47,13.38,10.11,1.53,6.54Z"/>
    <circle id="middle_flower-9" data-name="middle flower" class="cls-3" cx="216.71" cy="381.36" r="3.72"/>
  </g>
</svg>