<?xml version="1.0" encoding="UTF-8"?>
<svg id="flowers_icon.svg" xmlns="http://www.w3.org/2000/svg" viewBox="0 0 327 274.84">
  <defs>
    <style>
      .cls-1 {
        fill: #56c5d8;
      }

      .cls-2 {
        fill: #ff9c31;
      }

      .cls-3 {
        fill: #88d1e2;
      }

      .cls-4 {
        fill: #3e7d84;
      }

      .cls-5 {
        fill: #f7cbe2;
      }

      .cls-6 {
        fill: #edbed1;
      }

      .cls-7 {
        fill: #f4f44d;
      }

      .cls-8 {
        fill: #e895bb;
      }
    </style>
  </defs>
  <g>
    <path id="flower_petal_2" data-name="flower petal 2" class="cls-6" d="m147.18,185.81c73.41,63.17-67.63,112.52-49.62,17.36-18,95.16-131.26-2.31-39.85-34.29-91.41,31.99-63.63-114.83,9.77-51.66C-5.92,54.05,135.11,4.7,117.11,99.86c18-95.16,131.26,2.31,39.85,34.29,91.41-31.99,63.63,114.83-9.77,51.66Z"/>
    <path id="flower_petal_1" data-name="flower petal 1" class="cls-5" d="m141.54,180.95c63.01,54.22-58.05,96.58-42.59,14.9-15.45,81.68-112.67-1.98-34.2-29.44-78.46,27.46-54.62-98.56,8.39-44.34-63.01-54.22,58.05-96.58,42.59-14.9,15.45-81.68,112.67,1.98,34.2,29.44,78.46-27.46,54.62,98.56-8.39,44.34Z"/>
    <circle id="middle_flower" data-name="middle flower" class="cls-8" cx="107.33" cy="151.51" r="25.03"/>
  </g>
  <g>
    <path id="flower_petal_2-2" data-name="flower petal 2" class="cls-2" d="m272.56,217.92c59.21,50.96-54.55,90.77-40.03,14.01-14.52,76.76-105.88-1.86-32.15-27.66-73.74,25.8-51.33-92.63,7.88-41.67-59.21-50.96,54.55-90.77,40.03-14.01,14.52-76.76,105.88,1.86,32.15,27.66,73.74-25.8,51.33,92.63-7.88,41.67Z"/>
    <path id="flower_petal_1-2" data-name="flower petal 1" class="cls-7" d="m268.01,214c50.83,43.74-46.82,77.91-34.36,12.02-12.47,65.89-90.88-1.6-27.59-23.74-63.29,22.15-44.06-79.51,6.77-35.77-50.83-43.74,46.82-77.91,34.36-12.02,12.47-65.89,90.88,1.6,27.59,23.74,63.29-22.15,44.06,79.51-6.77,35.77Z"/>
    <circle id="middle_flower-2" data-name="middle flower" class="cls-2" cx="240.42" cy="190.26" r="20.19"/>
  </g>
  <g>
    <path id="flower_petal_2-3" data-name="flower petal 2" class="cls-1" d="m222.84,81.64c43.07,37.06-39.68,66.02-29.12,10.19-10.56,55.83-77.01-1.35-23.38-20.12-53.63,18.77-37.34-67.37,5.73-30.31-43.07-37.06,39.68-66.02,29.12-10.19,10.56-55.83,77.01,1.35,23.38,20.12,53.63-18.77,37.34,67.37-5.73,30.31Z"/>
    <path id="flower_petal_1-3" data-name="flower petal 1" class="cls-3" d="m219.53,78.79c36.97,31.81-34.06,56.67-24.99,8.74-9.07,47.92-66.1-1.16-20.07-17.27-46.04,16.11-32.05-57.83,4.92-26.02-36.97-31.81,34.06-56.67,24.99-8.74,9.07-47.92,66.1,1.16,20.07,17.27,46.04-16.11,32.05,57.83-4.92,26.02Z"/>
    <circle id="middle_flower-3" data-name="middle flower" class="cls-4" cx="199.46" cy="61.52" r="14.68"/>
  </g>
</svg>