<?xml version="1.0" encoding="UTF-8"?>
<svg id="rainy_cloud_icon.svg" xmlns="http://www.w3.org/2000/svg" viewBox="0 0 384 325.01">
  <defs>
    <style>
      .cls-1 {
        fill: #56c5d8;
      }

      .cls-2 {
        fill: #fff;
      }

      .cls-3 {
        fill: #88d1e2;
      }

      .cls-4 {
        fill: #3e7d84;
      }

      .cls-5 {
        opacity: .38;
      }
    </style>
  </defs>
  <g id="Cloudy_Rain" data-name="Cloudy Rain">
    <path id="pink_cloud" data-name="pink cloud" class="cls-3" d="m310.52,145.4c-16.98-45.74-61.72-77.65-113.17-75.95-47,1.56-86.55,30.73-103.66,71.4-32.77,5.39-57.25,34.36-56.13,68.45.24,7.35,1.68,14.38,4.08,20.93,11.73,6.25,25.19,9.62,39.43,9.15,6.23-.21,12.27-1.16,18.03-2.72,25.38,23.32,59.54,37.11,96.71,35.88,44.42-1.47,83.15-24.04,106.93-57.76,6.11,1.69,12.57,2.5,19.24,2.28,17.33-.57,32.82-7.98,43.98-19.54-1.47-29.46-25.99-52.47-55.45-52.1Z"/>
    <path id="salmond_cloud" data-name="salmond cloud" class="cls-1" d="m319.08,88.85C299.23,35.38,246.94-1.91,186.8.08c-54.93,1.82-101.16,35.91-121.16,83.46C27.35,89.84-1.27,123.7.04,163.54c.96,29.08,17.64,53.93,41.6,66.69-2.4-6.55-3.84-13.58-4.08-20.93-1.13-34.08,23.36-63.05,56.13-68.45,17.11-40.68,56.66-69.85,103.66-71.4,51.45-1.7,96.19,30.21,113.17,75.95,29.47-.37,53.99,22.64,55.45,52.1,11.64-12.05,18.59-28.6,17.99-46.67-1.16-34.95-30.08-62.42-64.88-61.98Z"/>
    <path id="Rain_Drop_Base" data-name="Rain Drop Base" class="cls-4" d="m275.14,283.07c.9,6.61-3.73,12.7-10.34,13.61s-12.7-3.73-13.61-10.34c-.9-6.61,9.22-21.87,9.22-21.87,0,0,13.83,11.99,14.73,18.6Z"/>
    <path id="Rain_Drop_Base-2" data-name="Rain Drop Base" class="cls-1" d="m228.33,311.29c.9,6.61-3.73,12.7-10.34,13.61s-12.7-3.73-13.61-10.34c-.9-6.61,9.22-21.87,9.22-21.87,0,0,13.83,11.99,14.73,18.6Z"/>
    <path id="Rain_Drop_Base-3" data-name="Rain Drop Base" class="cls-4" d="m167.19,303.21c.9,6.61-3.73,12.7-10.34,13.61-6.61.9-12.7-3.73-13.61-10.34s9.22-21.87,9.22-21.87c0,0,13.83,11.99,14.73,18.6Z"/>
    <path id="Rain_Drop_Base-4" data-name="Rain Drop Base" class="cls-1" d="m111.46,265.88c.9,6.61-3.73,12.7-10.34,13.61s-12.7-3.73-13.61-10.34,9.22-21.87,9.22-21.87c0,0,13.83,11.99,14.73,18.6Z"/>
    <path id="Rain_Drop_Base-5" data-name="Rain Drop Base" class="cls-1" d="m313.03,251.54c.9,6.61-3.73,12.7-10.34,13.61-6.61.9-12.7-3.73-13.61-10.34-.9-6.61,9.22-21.87,9.22-21.87,0,0,13.83,11.99,14.73,18.6Z"/>
  </g>
  <g id="shine_1" class="cls-5">
    <path class="cls-2" d="m112.77,127.88s30.78-60.66,99.19-49.38"/>
    <path class="cls-2" d="m112.77,127.88c16.07-29.72,46.41-50.94,80.77-51.04,6.14-.01,12.39.6,18.42,1.66-6.06-.81-12.3-1.23-18.41-1.1-8.54.3-17.19,1.71-25.32,4.34-23.41,7.69-43.02,25.06-55.46,46.13h0Z"/>
  </g>
  <g id="shine_2" class="cls-5">
    <path class="cls-2" d="m30.49,211.45s-19.43-11.47-21.15-32.99"/>
    <path class="cls-2" d="m30.49,211.45c-11.71-6.71-20.74-19.24-21.15-32.99.24,1.2.47,2.53.69,3.74,2.73,11.93,10.67,22.13,20.46,29.25h0Z"/>
  </g>
  <g id="shine_3" class="cls-5">
    <path class="cls-2" d="m370.49,153.97s5.99,5.58,5.25,13.87"/>
    <path class="cls-2" d="m370.49,153.97c4.09,3.12,6.43,8.79,5.25,13.87-.28-5.08-2.24-9.8-5.25-13.87h0Z"/>
  </g>
</svg>