<?xml version="1.0" encoding="UTF-8"?>
<svg id="tree_icon.svg" xmlns="http://www.w3.org/2000/svg" viewBox="0 0 417 420.71">
  <defs>
    <style>
      .cls-1 {
        opacity: .33;
        stroke: #68584b;
      }

      .cls-1, .cls-2 {
        fill: #68584b;
        stroke-linecap: round;
        stroke-linejoin: round;
      }

      .cls-2 {
        stroke: #594b42;
      }

      .cls-3 {
        fill: #84a58d;
      }

      .cls-4 {
        fill: #99816b;
      }

      .cls-5 {
        fill: #a7d8b7;
      }
    </style>
  </defs>
  <rect id="trunk" class="cls-4" x="179" y="213.7" width="59.73" height="207.01" rx="21.47" ry="21.47"/>
  <line class="cls-1" x1="209.82" y1="251.93" x2="209.82" y2="420.25"/>
  <line class="cls-1" x1="225.33" y1="249.82" x2="225.33" y2="418.14"/>
  <line class="cls-1" x1="193.76" y1="249.35" x2="193.76" y2="417.67"/>
  <g>
    <path id="tree_leaves_1" data-name="tree leaves 1" class="cls-5" d="m351.22,87.18C333.65,37,279.73.5,214.43,0c-59.65-.45-112.24,29.26-137.41,72.43C35.06,76.77,1.55,106.95.05,143.82c-1.1,26.91,15.15,50.52,40.17,63.25-2.12-6.14-3.16-12.7-2.88-19.5,1.29-31.54,29.95-57.37,65.85-61.08,21.53-36.93,66.53-62.35,117.56-61.96,55.87.42,102,31.65,117.03,74.58,31.95.8,56.83,23.02,56.25,50.3,13.5-10.68,22.24-25.71,22.92-42.43,1.32-32.34-28-58.85-65.74-59.8Z"/>
    <path id="tree_leaves_2" data-name="tree leaves 2" class="cls-3" d="m346.27,90.78c-16.33-46.62-66.41-80.53-127.09-80.99-55.42-.42-104.28,27.19-127.66,67.29-38.98,4.03-70.11,32.07-71.5,66.32-.3,7.39.82,14.5,3.13,21.17,13.3,6.77,28.87,10.72,45.66,10.84,7.35.06,14.52-.64,21.44-1.97,27.99,24.47,67.09,39.75,110.92,40.08,52.38.4,99.76-20.62,130.43-53.46,7.05,1.95,14.59,3.04,22.45,3.09,20.44.15,39.25-6.63,53.31-17.76.63-29.62-26.39-53.75-61.08-54.62Z"/>
    <path id="tree_leaves_2-2" data-name="tree leaves 2" class="cls-5" d="m345.05,116.31c-16.05-45.84-65.3-79.18-124.96-79.63-54.49-.41-102.53,26.73-125.53,66.16-38.33,3.96-68.93,31.54-70.31,65.21-.3,7.26.81,14.26,3.08,20.82,13.08,6.65,28.39,10.54,44.9,10.66,7.23.05,14.28-.63,21.08-1.94,27.53,24.06,65.97,39.08,109.06,39.41,51.5.39,98.09-20.28,128.24-52.57,6.93,1.92,14.35,2.98,22.08,3.04,20.09.15,38.59-6.52,52.42-17.46.62-29.13-25.94-52.85-60.06-53.71Z"/>
    <path id="tree_leaves_2-3" data-name="tree leaves 2" class="cls-3" d="m337.57,139.12c-15.04-42.93-61.16-74.16-117.03-74.58-51.03-.39-96.03,25.04-117.56,61.96-35.9,3.71-64.56,29.54-65.85,61.08-.28,6.8.76,13.35,2.88,19.5,12.25,6.23,26.59,9.87,42.05,9.99,6.77.05,13.37-.59,19.74-1.82,25.78,22.54,61.78,36.6,102.14,36.91,48.23.37,91.87-18.99,120.11-49.23,6.49,1.8,13.44,2.8,20.68,2.85,18.82.14,36.14-6.11,49.09-16.35.58-27.28-24.3-49.5-56.25-50.3Z"/>
    <path id="tree_leaves_2-4" data-name="tree leaves 2" class="cls-5" d="m326.75,141.07c-13.43-38.36-54.64-66.26-104.56-66.64-45.6-.35-85.8,22.37-105.04,55.36-32.08,3.32-57.68,26.39-58.83,54.57-.25,6.08.68,11.93,2.57,17.42,10.94,5.57,23.76,8.82,37.57,8.92,6.05.05,11.95-.53,17.64-1.62,23.03,20.13,55.2,32.7,91.26,32.98,43.09.33,82.08-16.97,107.31-43.99,5.8,1.61,12,2.5,18.47,2.55,16.81.13,32.29-5.45,43.86-14.61.52-24.37-21.71-44.23-50.26-44.94Z"/>
    <path id="tree_leaves_2-5" data-name="tree leaves 2" class="cls-3" d="m306.67,143.92c-11.27-32.18-45.84-55.58-87.72-55.9-38.25-.29-71.98,18.77-88.11,46.44-26.91,2.78-48.39,22.14-49.35,45.78-.21,5.1.57,10.01,2.16,14.61,9.18,4.67,19.93,7.4,31.52,7.48,5.07.04,10.02-.44,14.8-1.36,19.32,16.89,46.31,27.43,76.56,27.66,36.15.27,68.85-14.24,90.02-36.9,4.87,1.35,10.07,2.09,15.5,2.14,14.11.11,27.09-4.58,36.79-12.26.43-20.45-18.21-37.1-42.16-37.7Z"/>
    <path id="tree_leaves_2-6" data-name="tree leaves 2" class="cls-5" d="m292.82,150.57c-9.12-26.03-37.08-44.96-70.95-45.22-30.94-.23-58.22,15.18-71.27,37.57-21.76,2.25-39.14,17.91-39.92,37.03-.17,4.12.46,8.1,1.75,11.82,7.43,3.78,16.12,5.98,25.49,6.05,4.1.03,8.11-.36,11.97-1.1,15.63,13.66,37.46,22.19,61.93,22.38,29.24.22,55.69-11.51,72.82-29.85,3.94,1.09,8.15,1.69,12.54,1.73,11.41.09,21.91-3.7,29.76-9.91.35-16.54-14.73-30.01-34.1-30.49Z"/>
    <path id="tree_leaves_2-7" data-name="tree leaves 2" class="cls-3" d="m275.97,152.22c-7.37-21.05-29.99-36.37-57.39-36.57-25.03-.19-47.09,12.28-57.65,30.39-17.61,1.82-31.66,14.48-32.29,29.95-.14,3.34.37,6.55,1.41,9.56,6.01,3.06,13.04,4.84,20.62,4.9,3.32.03,6.56-.29,9.68-.89,12.64,11.05,30.3,17.95,50.09,18.1,23.65.18,45.05-9.31,58.9-24.14,3.18.88,6.59,1.37,10.14,1.4,9.23.07,17.72-2.99,24.07-8.02.28-13.38-11.92-24.27-27.59-24.67Z"/>
    <path id="tree_leaves_2-8" data-name="tree leaves 2" class="cls-5" d="m266.3,154.62c-5.96-17.03-24.26-29.42-46.42-29.58-20.24-.15-38.09,9.93-46.63,24.58-14.24,1.47-25.61,11.72-26.12,24.23-.11,2.7.3,5.3,1.14,7.73,4.86,2.47,10.55,3.91,16.68,3.96,2.69.02,5.31-.23,7.83-.72,10.23,8.94,24.51,14.52,40.52,14.64,19.13.14,36.44-7.53,47.64-19.53,2.58.71,5.33,1.11,8.2,1.13,7.47.06,14.34-2.42,19.47-6.49.23-10.82-9.64-19.63-22.31-19.95Z"/>
    <path id="tree_leaves_2-9" data-name="tree leaves 2" class="cls-3" d="m252.39,156.78c-4.27-12.19-17.36-21.05-33.23-21.17-14.49-.11-27.26,7.11-33.38,17.59-10.19,1.05-18.33,8.39-18.69,17.34-.08,1.93.22,3.79.82,5.54,3.48,1.77,7.55,2.8,11.94,2.83,1.92.01,3.8-.17,5.6-.52,7.32,6.4,17.54,10.39,29,10.48,13.69.1,26.08-5.39,34.1-13.98,1.84.51,3.81.79,5.87.81,5.34.04,10.26-1.73,13.94-4.64.16-7.74-6.9-14.05-15.97-14.28Z"/>
  </g>
  <ellipse class="cls-2" cx="208.87" cy="323.9" rx="13.19" ry="22.92"/>
</svg>