<?xml version="1.0" encoding="UTF-8"?>
<svg id="moon_icon.svg" xmlns="http://www.w3.org/2000/svg" xmlns:xlink="http://www.w3.org/1999/xlink" viewBox="0 0 328.38 354.72">
  <defs>
    <style>
      .cls-1 {
        fill: #56c5d8;
      }

      .cls-2 {
        fill: #88d1e2;
      }

      .cls-3 {
        opacity: .45;
      }

      .cls-3, .cls-4 {
        fill: #f9f6e4;
      }

      .cls-5 {
        fill: #3e7d84;
      }

      .cls-4 {
        opacity: .53;
      }

      .cls-6 {
        fill: url(#linear-gradient);
      }
    </style>
    <linearGradient id="linear-gradient" x1="0" y1="177.36" x2="233.76" y2="177.36" gradientUnits="userSpaceOnUse">
      <stop offset="0" stop-color="#efc056"/>
      <stop offset=".38" stop-color="#eebe58"/>
      <stop offset=".6" stop-color="#ebb860"/>
      <stop offset=".79" stop-color="#e6af6f"/>
      <stop offset=".96" stop-color="#dfa283"/>
      <stop offset="1" stop-color="#dd9e8a"/>
    </linearGradient>
  </defs>
  <g id="moon">
    <path class="cls-6" d="m94.96,182.3c0-84.71,59.39-155.54,138.8-173.14C215.81,3.15,196.59-.08,176.6,0,80.32.4,1.26,78.73.02,175.01c-1.28,99.03,78.61,179.72,177.34,179.72,13.24,0,26.15-1.46,38.56-4.22-70.3-23.56-120.96-89.96-120.96-168.2Z"/>
    <path class="cls-2" d="m178.87,84.18l13.7,11.67c1.83,1.56,4.31,2.12,6.63,1.49l17.38-4.67c5.85-1.57,10.96,4.25,8.65,9.85l-6.87,16.63c-.92,2.22-.68,4.76.63,6.77l9.81,15.09c3.3,5.08-.65,11.74-6.69,11.27l-17.94-1.39c-2.4-.19-4.73.82-6.25,2.69l-11.32,13.99c-3.81,4.71-11.36,3.01-12.78-2.88l-4.22-17.49c-.56-2.34-2.24-4.25-4.49-5.11l-16.8-6.44c-5.66-2.17-6.37-9.88-1.21-13.05l15.33-9.42c2.05-1.26,3.35-3.45,3.47-5.85l.93-17.97c.31-6.05,7.43-9.11,12.04-5.18Z"/>
    <path class="cls-4" d="m100.47,229.29c-55.78,14.95-45.57,25.15-30.63-30.63-14.95,55.78-1,52.04-41.83,11.21,40.83,40.83,44.57,26.89-11.21,41.83,55.78-14.95,45.57-25.15,30.63,30.63,14.95-55.78,1-52.04,41.83-11.21-40.83-40.83-44.57-26.89,11.21-41.83Z"/>
    <path class="cls-3" d="m82.82,173.22c-27.03,7.24-22.08,12.19-14.84-14.84-7.24,27.03-.49,25.22-20.27,5.43,19.79,19.79,21.6,13.03-5.43,20.27,27.03-7.24,22.08-12.19,14.84,14.84,7.24-27.03.49-25.22,20.27-5.43-19.79-19.79-21.6-13.03,5.43-20.27Z"/>
    <path class="cls-5" d="m153.22,191.94l10.44,12.6c.95,1.14,2.39,1.75,3.87,1.61l16.3-1.46c3.72-.33,6.21,3.74,4.21,6.9l-8.75,13.82c-.79,1.25-.92,2.82-.34,4.18l6.42,15.05c1.47,3.43-1.64,7.06-5.26,6.13l-15.85-4.06c-1.44-.37-2.96,0-4.08.97l-12.33,10.76c-2.81,2.46-7.22.62-7.46-3.11l-1.04-16.33c-.09-1.48-.91-2.82-2.18-3.58l-14.04-8.4c-3.21-1.92-2.82-6.68.65-8.06l15.21-6.04c1.38-.55,2.4-1.74,2.73-3.18l3.65-15.95c.83-3.64,5.48-4.75,7.86-1.87Z"/>
    <path class="cls-1" d="m286.03,173.65l6.96,24.14c.79,2.75,2.89,4.94,5.61,5.85l23.83,7.96c6.84,2.29,8.1,11.43,2.12,15.47l-20.81,14.08c-2.37,1.61-3.8,4.28-3.83,7.14l-.2,25.13c-.06,7.21-8.36,11.23-14.06,6.8l-19.82-15.45c-2.26-1.76-5.24-2.3-7.97-1.43l-23.96,7.57c-6.88,2.17-13.27-4.49-10.81-11.27l8.57-23.62c.98-2.69.57-5.7-1.1-8.03l-14.6-20.45c-4.19-5.87.17-14,7.38-13.76l25.11.85c2.86.1,5.59-1.22,7.29-3.53l14.93-20.21c4.29-5.8,13.37-4.17,15.37,2.76Z"/>
  </g>
</svg>