<?xml version="1.0" encoding="UTF-8"?>
<svg id="sunny_cloud_icon.svg" xmlns="http://www.w3.org/2000/svg" xmlns:xlink="http://www.w3.org/1999/xlink" viewBox="0 0 417 390.67">
  <defs>
    <style>
      .cls-1 {
        fill: #fff;
      }

      .cls-2 {
        fill: #dda868;
      }

      .cls-3 {
        fill: #efc056;
      }

      .cls-4 {
        fill: #edbed1;
      }

      .cls-5 {
        opacity: .38;
      }

      .cls-6 {
        fill: #dd9e8a;
      }

      .cls-7 {
        fill: url(#linear-gradient);
      }
    </style>
    <linearGradient id="linear-gradient" x1="221.98" y1="120.47" x2="371.08" y2="120.47" gradientTransform="translate(172.04 -174.39) rotate(45)" gradientUnits="userSpaceOnUse">
      <stop offset="0" stop-color="#efc056"/>
      <stop offset=".38" stop-color="#eebe58"/>
      <stop offset=".6" stop-color="#ebb860"/>
      <stop offset=".79" stop-color="#e6af6f"/>
      <stop offset=".96" stop-color="#dfa283"/>
      <stop offset="1" stop-color="#dd9e8a"/>
    </linearGradient>
  </defs>
  <path id="pink_cloud" data-name="pink cloud" class="cls-4" d="m321.82,275.41c-11.04-49.35-52.52-88.38-105.6-93.83-48.48-4.98-93.18,19.45-116.44,58.83-34.41.95-63.6,27.28-67.21,62.44-.78,7.58-.29,15,1.26,22.06,11.17,8.06,24.53,13.4,39.21,14.91,6.43.66,12.76.53,18.9-.27,22.8,27.5,55.96,46.43,94.3,50.37,45.82,4.7,88.76-13.06,117.9-44.36,6.04,2.59,12.56,4.32,19.44,5.03,17.88,1.84,34.82-3.61,47.9-13.92,2.61-30.46-19.35-57.52-49.66-61.26Z"/>
  <path id="salmond_cloud" data-name="salmond cloud" class="cls-6" d="m338.52,218.53c-12.91-57.68-61.39-103.3-123.43-109.67-56.67-5.82-108.91,22.73-136.1,68.76C38.78,178.74,4.65,209.51.43,250.61c-3.08,30,10.58,57.85,33.4,74.31-1.55-7.06-2.04-14.48-1.26-22.06,3.61-35.16,32.81-61.49,67.21-62.44,23.26-39.38,67.96-63.8,116.44-58.83,53.08,5.45,94.56,44.48,105.6,93.83,30.31,3.74,52.28,30.8,49.66,61.26,13.64-10.75,23.09-26.78,25-45.41,3.7-36.05-22.16-68.31-57.96-72.73Z"/>
  <g id="sunshine">
    <circle class="cls-7" cx="296.53" cy="120.47" r="74.55" transform="translate(1.67 244.96) rotate(-45)"/>
    <polygon class="cls-2" points="246.27 61.55 211.13 35.5 208.2 38.43 237.61 70.22 246.27 61.55"/>
    <polygon class="cls-3" points="219.33 114.34 176.06 120.77 176.06 124.92 219.33 126.6 219.33 114.34"/>
    <polygon class="cls-2" points="211.56 205.87 214.49 208.8 246.27 179.39 237.61 170.73 211.56 205.87"/>
    <polygon class="cls-3" points="296.83 240.94 300.98 240.94 302.66 197.67 290.4 197.67 296.83 240.94"/>
    <polygon class="cls-2" points="346.78 179.39 381.93 205.44 384.86 202.51 355.45 170.73 346.78 179.39"/>
    <polygon class="cls-3" points="373.73 114.34 373.73 126.6 417 120.17 417 116.02 373.73 114.34"/>
    <polygon class="cls-2" points="381.5 35.07 378.57 32.14 346.78 61.55 355.45 70.22 381.5 35.07"/>
    <polygon class="cls-3" points="296.23 0 292.08 0 290.4 43.27 302.66 43.27 296.23 0"/>
  </g>
  <g id="shine_1" class="cls-5">
    <path class="cls-1" d="m107.56,242.64s31.9-62.87,102.81-51.18"/>
    <path class="cls-1" d="m107.56,242.64c12.14-22.45,32.72-40.86,57.19-48.7,8.52-2.74,17.58-4.05,26.52-4.19,6.37-.01,12.84.62,19.1,1.71-6.32-.85-12.71-1.28-19.08-1.15-8.85.31-17.82,1.77-26.25,4.49-24.26,7.97-44.59,25.98-57.47,47.83h0Z"/>
  </g>
  <g id="shine_2" class="cls-5">
    <path class="cls-1" d="m31.91,319.23s-20.14-11.88-21.92-34.19"/>
    <path class="cls-1" d="m31.91,319.23c-12.12-6.98-21.47-19.95-21.92-34.19.24,1.24.48,2.62.7,3.87,2.82,12.37,11.05,22.95,21.21,30.32h0Z"/>
  </g>
  <g id="shine_3" class="cls-5">
    <path class="cls-1" d="m384.44,256.39s6.61,5.32,6.46,13.94"/>
    <path class="cls-1" d="m384.44,256.39c4.45,2.94,7.27,8.61,6.46,13.94-.64-5.23-3.02-9.98-6.46-13.94h0Z"/>
  </g>
</svg>